#!OML:ASF F:\VICON\USERDATA\INSTALL\rory3\rory3.ASF
:FULLY-SPECIFIED
:DEGREES
27
root 0.3211151457082434 17.25879372743993 -9.005294843055403 4.10829699929838 0.1960481695886589 0.33913772863342606
lfemur -6.272303854301839 1.4430915600659016 -28.22181458571195
ltibia 41.03920855565541
lfoot -19.071922266302064 -0.9086499890750748
ltoes -9.933524150241448
rfemur -36.27245191476614 -4.100768377425618 21.43674975888832
rtibia 97.72119591286452
rfoot 4.910903397347771 -2.4650935963669367
rtoes 5.186907598303444
lowerback 16.10040328439631 -0.021081342581140028 -2.83224362355758
upperback -0.5312424870692816 -1.0197179707092268 0.07263736380258701
thorax -9.407736185245696 -0.1319360313379192 2.057712665762247
lowerneck -20.265673979406824 -4.039908416999462 -2.4224472776930845
upperneck 10.45560991968631 -5.942017444037598 8.098893333613105
head 6.8950962856182345 -2.371564161679112 2.2071494182140814
lclavicle 2.9801515526418193e-15 1.1900897868366784e-16
lhumerus -38.68831070236044 -10.893636902895292 93.41485052314655
lradius 114.60135486158639
lwrist 34.54694254108632
lhand -21.673734875704056 3.421402287420558
lfingers 7.125019999999999
lthumb 4.469184917332991 33.10527503352497
rclavicle 2.980138167314519e-15 1.1900166257690053e-16
rhumerus -58.0151156018874 8.94417174194152 -98.55347467937062
rradius 103.54357441227872
rwrist -15.866118935764753
rhand -15.156859086671314 38.169147180319904
rfingers 7.125019999999999
rthumb 11.05211535984742 8.487384569473994
28
root 0.33042790519216475 17.451638803631347 -8.125145126513825 4.308736240942214 -0.3040328750941306 0.21698595847942448
lfemur -2.878883802858166 1.1289778134642525 -28.23178137509114
ltibia 38.14805295918721
lfoot -14.332284509598292 -3.138820204326893
ltoes -16.99916390529896
rfemur -38.536411958728365 -2.9397973253729393 22.326786390135148
rtibia 92.5565883454301
rfoot 2.919800898848366 -2.680479489974966
rtoes 3.4441737863232795
lowerback 15.516373254410224 -0.46532393037155007 -2.784337536921881
upperback -0.6053987758783004 -1.4897224242719957 0.3042564722127328
thorax -9.15402584381064 -0.3335352814355236 2.5324527267974153
lowerneck -20.288204450647594 -3.9008438397076337 -2.435251357194444
upperneck 10.95484728252484 -5.564058457217409 7.6296916945381295
head 6.993117537172895 -2.262128770491221 2.1208519092515656
lclavicle 2.9801515526450465e-15 1.1900897868543168e-16
lhumerus -37.759334905853514 -11.004141598333245 93.07535303111686
lradius 117.43380851416879
lwrist 35.20417738521003
lhand -21.4168399919338 3.158372002357655
lfingers 7.125019999999999
lthumb 4.782164769824821 32.960664953561846
rclavicle 2.9801381673233065e-15 1.1900166258170356e-16
rhumerus -59.78852458673341 8.94795781775299 -98.24725662732719
rradius 104.63274226983374
rwrist -15.555388797016503
rhand -14.683719042985402 38.702180488088274
rfingers 7.125019999999999
rthumb 11.471850478270667 9.102377458881309
29
root 0.3391560703871336 17.664551759885587 -7.0141164345768905 4.346081805226567 -1.6448674748414374 0.06696262825482391
lfemur 0.4198649681359541 1.144176775480583 -28.140718404834047
ltibia 34.79722684086981
lfoot -8.072542685470731 -5.903875419903648
ltoes -18.95251842078426
rfemur -40.28728476809249 -1.400695919706938 23.148119665793846
rtibia 85.99162750747121
rfoot 0.7195987507826906 -3.1830529402813923
rtoes 2.4022810426760133
lowerback 15.072757965319475 -0.5871969373764295 -2.588405743213869
upperback -0.7641051812464468 -1.4773148533723668 0.6089035373888041
thorax -9.232781610518249 -0.4043967464727328 2.7027360575123476
lowerneck -20.156315646312866 -3.7830839046673823 -2.5015228322249397
upperneck 11.465587680823836 -5.238733833840527 7.2840801460369535
head 7.1240542557380255 -2.133850011201505 2.0424986359225175
lclavicle 2.9801515526515313e-15 1.1900897868897618e-16
lhumerus -37.182383664313775 -11.016535673764825 92.76364125075048
lradius 119.36992774378227
lwrist 34.98104574480514
lhand -21.38940279820088 3.0550016057721425
lfingers 7.125019999999999
lthumb 4.791482832917842 32.9287881804646
rclavicle 2.9801381672969416e-15 1.1900166256729312e-16
rhumerus -61.38877149996145 8.62545495586546 -97.82418980294815
rradius 105.22655523811073
rwrist -15.377368335677032
rhand -14.869528539703254 38.8563388433833
rfingers 7.125019999999999
rthumb 11.197056045011593 9.201855104907592
30
root 0.3502437582552034 17.886851980857532 -5.923664464557588 4.341582053141822 -3.4297396812040315 -0.2283803228211736
lfemur 3.0867180850497036 1.1368449603121324 -27.962827108374192
ltibia 31.054337302637908
lfoot -0.7550764587813728 -8.542679725350283
ltoes -21.477708323700238
rfemur -41.27848885165086 0.10266555218069051 23.900679680811976
rtibia 78.23717457160546
rfoot -1.2256919568525708 -3.7378229576062236
rtoes -1.176042299443782
lowerback 14.54745500493516 -0.5428387351911427 -2.4183429343903686
upperback -1.0438119609371994 -1.4784069689302761 0.8708065634165045
thorax -9.11061368811329 -0.44190214493447855 2.7623536495816903
lowerneck -19.994536537306512 -3.6606894135644774 -2.5663726421053203
upperneck 12.249183564412322 -4.9551285967775645 6.841076842562552
head 7.224574532265017 -2.0875764536311086 1.9564747471128898
lclavicle 2.9801515526498877e-15 1.1900897868807782e-16
lhumerus -37.05116869455906 -11.122118305637567 92.43744022310912
lradius 120.70036921237292
lwrist 34.81205079284219
lhand -21.266110816773768 2.9283866672965075
lfingers 7.125019999999999
lthumb 4.865455680953581 32.804595851698316
rclavicle 2.980138167384956e-15 1.1900166261539986e-16
rhumerus -62.913954034256705 8.172999650495655 -97.27468911645964
rradius 105.48796436764331
rwrist -15.441170251870583
rhand -15.134043346062178 39.13723338982141
rfingers 7.125019999999999
rthumb 10.974937064835864 9.626384460094522
